<?xml version="1.0" standalone="no"?>
<!DOCTYPE svg PUBLIC "-//W3C//DTD SVG 20010904//EN"
 "http://www.w3.org/TR/2001/REC-SVG-20010904/DTD/svg10.dtd">
<svg version="1.0" xmlns="http://www.w3.org/2000/svg"
 width="133.000000pt" height="100.000000pt" viewBox="0 0 133.000000 100.000000"
 preserveAspectRatio="xMidYMid meet">

<g transform="translate(0.000000,100.000000) scale(0.100000,-0.100000)"
fill="#000000" stroke="none">
<path d="M855 750 c-89 -18 -189 -62 -332 -147 l-92 -54 50 -112 c28 -61 52
-113 55 -116 2 -2 30 3 61 13 30 10 104 22 162 27 58 6 126 16 151 25 69 22
146 70 176 109 56 73 35 178 -45 232 -39 27 -76 31 -67 8 3 -8 1 -15 -5 -15
-9 0 -18 -17 -33 -68 -7 -19 -1 -25 41 -43 26 -11 63 -24 83 -28 48 -10 49
-33 3 -55 l-37 -18 -21 25 c-19 24 -62 47 -88 47 -6 0 -1 -10 12 -21 15 -14
19 -25 13 -31 -7 -7 -5 -19 6 -37 8 -15 13 -34 10 -42 -6 -15 -156 -79 -184
-79 -16 0 -19 31 -4 46 16 16 -59 182 -84 186 -12 2 -22 10 -24 19 -3 18 91
65 108 54 13 -8 13 -45 0 -45 -17 0 -11 -23 25 -106 35 -82 42 -87 88 -63 21
12 23 44 2 35 -17 -6 -41 29 -26 38 15 9 -39 124 -60 129 -29 8 -23 35 12 52
38 20 63 13 56 -16 -6 -23 1 -49 13 -49 12 0 19 39 9 46 -19 11 -8 36 24 49
29 13 30 14 7 14 -14 -1 -43 -5 -65 -9z m-211 -216 c32 -36 69 -70 82 -74 14
-6 24 -18 24 -28 0 -18 -37 -42 -64 -42 -16 0 -29 27 -20 41 9 15 -23 21 -45
9 -25 -13 -26 -26 -6 -46 8 -9 15 -20 15 -25 0 -14 -64 -38 -75 -27 -6 5 -9
49 -7 104 3 78 1 94 -11 94 -23 0 -31 33 -11 47 34 25 58 14 118 -53z"/>
<path d="M600 500 c0 -5 5 -10 11 -10 5 0 7 5 4 10 -3 6 -8 10 -11 10 -2 0 -4
-4 -4 -10z"/>
<path d="M305 500 c-64 -25 -120 -71 -134 -111 l-10 -30 32 19 c36 22 57 19
57 -8 0 -9 6 -23 14 -29 11 -9 12 -2 8 39 -5 59 8 65 56 25 17 -14 32 -25 36
-25 10 0 -6 34 -28 58 l-21 23 25 19 c14 11 33 20 43 20 10 0 15 5 12 10 -9
14 -33 12 -90 -10z"/>
<path d="M400 453 c1 -10 7 -45 15 -78 8 -33 15 -66 15 -72 0 -21 -29 -15 -65
13 l-34 26 2 -61 c2 -55 4 -60 22 -54 18 5 135 61 143 68 5 5 -82 175 -90 175
-5 0 -8 -8 -8 -17z"/>
<path d="M170 325 c0 -4 7 -19 15 -35 21 -40 63 -70 99 -70 l30 0 -54 55 c-30
30 -62 55 -72 55 -10 0 -18 -2 -18 -5z"/>
</g>
</svg>
